<svg xmlns="http://www.w3.org/2000/svg" viewBox="0 0 200 200"><defs><radialGradient id="bg_b" cx="50%" cy="50%" r="50%"><stop offset="0%" stop-color="#f3e8ff"/><stop offset="100%" stop-color="#e9d5ff"/></radialGradient><linearGradient id="egg" x1="0" y1="0" x2="1" y2="1"><stop offset="0%" stop-color="#9333ea"/><stop offset="100%" stop-color="#3b0764"/></linearGradient><linearGradient id="leaf_b" x1="0" y1="0" x2="0" y2="1"><stop offset="0%" stop-color="#22c55e"/><stop offset="100%" stop-color="#15803d"/></linearGradient></defs><circle cx="100" cy="100" r="90" fill="url(#bg_b)"/><path d="M95 45 C130 55 150 100 135 145 C120 180 80 180 65 145 C50 100 70 55 95 45 Z" fill="url(#egg)"/><ellipse cx="80" cy="95" rx="10" ry="22" fill="#ffffff" opacity="0.25" transform="rotate(-20 80 95)"/><path d="M95 45 C90 30 85 20 90 15 C95 12 105 18 100 35 C115 40 120 52 110 58 C98 52 102 45 95 45 C88 45 92 52 80 58 C70 52 75 40 95 45 Z" fill="url(#leaf_b)"/></svg>